%TF.GenerationSoftware,KiCad,Pcbnew,7.0.2*%
%TF.CreationDate,2023-05-03T11:21:43+05:30*%
%TF.ProjectId,Bed-leveler-PCB,4265642d-6c65-4766-956c-65722d504342,rev?*%
%TF.SameCoordinates,Original*%
%TF.FileFunction,Profile,NP*%
%FSLAX46Y46*%
G04 Gerber Fmt 4.6, Leading zero omitted, Abs format (unit mm)*
G04 Created by KiCad (PCBNEW 7.0.2) date 2023-05-03 11:21:43*
%MOMM*%
%LPD*%
G01*
G04 APERTURE LIST*
%TA.AperFunction,Profile*%
%ADD10C,0.100000*%
%TD*%
%TA.AperFunction,SMDPad,CuDef*%
%ADD11R,5.790000X3.600000*%
%TD*%
%TA.AperFunction,SMDPad,CuDef*%
%ADD12R,1.400000X1.600000*%
%TD*%
%TA.AperFunction,ComponentPad*%
%ADD13R,1.800000X1.800000*%
%TD*%
%TA.AperFunction,ComponentPad*%
%ADD14C,1.800000*%
%TD*%
%TA.AperFunction,Conductor*%
%ADD15C,1.000000*%
%TD*%
G04 APERTURE END LIST*
D10*
X171004214Y-62004214D02*
G75*
G03*
X169004214Y-64004214I0J-2000000D01*
G01*
X168994214Y-90005786D02*
G75*
G03*
X170994214Y-92005786I2000000J0D01*
G01*
X218995786Y-63994214D02*
G75*
G03*
X216995786Y-61994214I-2000000J0D01*
G01*
X217005786Y-92005786D02*
G75*
G03*
X219005786Y-90005786I0J2000000D01*
G01*
X218995786Y-63994214D02*
X219005786Y-90005786D01*
X171004214Y-62004214D02*
X216995786Y-61994214D01*
X168994214Y-90005786D02*
X169004214Y-64004214D01*
X217005786Y-92005786D02*
X170994214Y-92005786D01*
D11*
%TO.P,BT1,1,+*%
%TO.N,Net-(BT1-+)*%
X213567500Y-75000000D03*
%TO.P,BT1,2,-*%
%TO.N,Net-(BT1--)*%
X187457500Y-75000000D03*
%TD*%
D12*
%TO.P,SW1,1,1*%
%TO.N,Net-(D1-K)*%
X173912500Y-81000000D03*
X173912500Y-73000000D03*
%TO.P,SW1,2,2*%
%TO.N,Net-(BT1--)*%
X178412500Y-73000000D03*
X178412500Y-81000000D03*
%TD*%
D13*
%TO.P,D1,1,K*%
%TO.N,Net-(D1-K)*%
X212162500Y-88000000D03*
D14*
%TO.P,D1,2,A*%
%TO.N,Net-(BT1-+)*%
X214702500Y-88000000D03*
%TD*%
D15*
%TO.N,Net-(D1-K)*%
X212162500Y-88000000D02*
X176000000Y-88000000D01*
X176000000Y-88000000D02*
X173912500Y-85912500D01*
X173912500Y-85912500D02*
X173912500Y-81000000D01*
%TO.N,Net-(BT1-+)*%
X215162500Y-75000000D02*
X215162500Y-87540000D01*
X215162500Y-87540000D02*
X214702500Y-88000000D01*
%TO.N,Net-(D1-K)*%
X173912500Y-73000000D02*
X173912500Y-81000000D01*
%TD*%
%TA.AperFunction,Conductor*%
%TO.N,Net-(BT1--)*%
G36*
X216999815Y-61994978D02*
G01*
X217079345Y-62000190D01*
X217257394Y-62012924D01*
X217272708Y-62014987D01*
X217385070Y-62037337D01*
X217526070Y-62068009D01*
X217539515Y-62071742D01*
X217653381Y-62110394D01*
X217656781Y-62111605D01*
X217784635Y-62159291D01*
X217796136Y-62164258D01*
X217906331Y-62218600D01*
X217910908Y-62220977D01*
X217948183Y-62241330D01*
X218028311Y-62285084D01*
X218037774Y-62290813D01*
X218077365Y-62317266D01*
X218140999Y-62359785D01*
X218146380Y-62363593D01*
X218252575Y-62443090D01*
X218259987Y-62449099D01*
X218353701Y-62531284D01*
X218359623Y-62536831D01*
X218453167Y-62630375D01*
X218458714Y-62636297D01*
X218540895Y-62730006D01*
X218546913Y-62737430D01*
X218626391Y-62843599D01*
X218630227Y-62849019D01*
X218699185Y-62952224D01*
X218704914Y-62961687D01*
X218769018Y-63079084D01*
X218771398Y-63083667D01*
X218825740Y-63193862D01*
X218830710Y-63205372D01*
X218878380Y-63333180D01*
X218879618Y-63336657D01*
X218918251Y-63450470D01*
X218921997Y-63463968D01*
X218952664Y-63604938D01*
X218975012Y-63717287D01*
X218977075Y-63732612D01*
X218989811Y-63910676D01*
X218995022Y-63990193D01*
X218995287Y-63998250D01*
X219005284Y-90001692D01*
X219005019Y-90009849D01*
X218999811Y-90089322D01*
X218987076Y-90267377D01*
X218985010Y-90282721D01*
X218962665Y-90395060D01*
X218931997Y-90536039D01*
X218928254Y-90549522D01*
X218889618Y-90663342D01*
X218888380Y-90666818D01*
X218840710Y-90794626D01*
X218835740Y-90806136D01*
X218781398Y-90916331D01*
X218779018Y-90920914D01*
X218714914Y-91038311D01*
X218709185Y-91047774D01*
X218640227Y-91150979D01*
X218636391Y-91156399D01*
X218556923Y-91262556D01*
X218550884Y-91270005D01*
X218468714Y-91363701D01*
X218463167Y-91369623D01*
X218369623Y-91463167D01*
X218363701Y-91468714D01*
X218270005Y-91550884D01*
X218262556Y-91556923D01*
X218156399Y-91636391D01*
X218150979Y-91640227D01*
X218047774Y-91709185D01*
X218038311Y-91714914D01*
X217920914Y-91779018D01*
X217916331Y-91781398D01*
X217806136Y-91835740D01*
X217794626Y-91840710D01*
X217666818Y-91888380D01*
X217663341Y-91889618D01*
X217549528Y-91928251D01*
X217536030Y-91931997D01*
X217395061Y-91962664D01*
X217337216Y-91974170D01*
X217282697Y-91985014D01*
X217267387Y-91987075D01*
X217089324Y-91999811D01*
X217009826Y-92005021D01*
X217001721Y-92005286D01*
X170998280Y-92005286D01*
X170990171Y-92005021D01*
X170910676Y-91999811D01*
X170732621Y-91987076D01*
X170717277Y-91985009D01*
X170604939Y-91962664D01*
X170523069Y-91944855D01*
X170463949Y-91931994D01*
X170450476Y-91928254D01*
X170336656Y-91889618D01*
X170333180Y-91888380D01*
X170205372Y-91840710D01*
X170193862Y-91835740D01*
X170083667Y-91781398D01*
X170079084Y-91779018D01*
X169961687Y-91714914D01*
X169952224Y-91709185D01*
X169849019Y-91640227D01*
X169843599Y-91636391D01*
X169737430Y-91556913D01*
X169730006Y-91550895D01*
X169636297Y-91468714D01*
X169630375Y-91463167D01*
X169536831Y-91369623D01*
X169531284Y-91363701D01*
X169499660Y-91327641D01*
X169449099Y-91269987D01*
X169443090Y-91262575D01*
X169363593Y-91156380D01*
X169359785Y-91150999D01*
X169317266Y-91087365D01*
X169290813Y-91047774D01*
X169285084Y-91038311D01*
X169220980Y-90920914D01*
X169218600Y-90916331D01*
X169164258Y-90806136D01*
X169159291Y-90794635D01*
X169111605Y-90666781D01*
X169110387Y-90663360D01*
X169095671Y-90620008D01*
X169071747Y-90549528D01*
X169068001Y-90536029D01*
X169037335Y-90395060D01*
X169037030Y-90393530D01*
X169014981Y-90282680D01*
X169012924Y-90267399D01*
X169000198Y-90089476D01*
X168994979Y-90009840D01*
X168994715Y-90001696D01*
X168994715Y-90001692D01*
X168997852Y-81844578D01*
X172712000Y-81844578D01*
X172712001Y-81847872D01*
X172718409Y-81907483D01*
X172768704Y-82042331D01*
X172854954Y-82157546D01*
X172862311Y-82163053D01*
X172904181Y-82218986D01*
X172912000Y-82262320D01*
X172912000Y-85898221D01*
X172911960Y-85901363D01*
X172909742Y-85988862D01*
X172920148Y-86046920D01*
X172921457Y-86056249D01*
X172927426Y-86114938D01*
X172936533Y-86143967D01*
X172940272Y-86159202D01*
X172945641Y-86189152D01*
X172967520Y-86243925D01*
X172970680Y-86252800D01*
X172988341Y-86309088D01*
X173003107Y-86335691D01*
X173009837Y-86349864D01*
X173021122Y-86378117D01*
X173053580Y-86427367D01*
X173058461Y-86435423D01*
X173087090Y-86487001D01*
X173106904Y-86510081D01*
X173116356Y-86522616D01*
X173133099Y-86548020D01*
X173174800Y-86589721D01*
X173181205Y-86596632D01*
X173219634Y-86641396D01*
X173243693Y-86660019D01*
X173255472Y-86670393D01*
X175282431Y-88697351D01*
X175284624Y-88699600D01*
X175344942Y-88763054D01*
X175393362Y-88796755D01*
X175400871Y-88802416D01*
X175446593Y-88839698D01*
X175473562Y-88853785D01*
X175486982Y-88861916D01*
X175511949Y-88879294D01*
X175566163Y-88902559D01*
X175574663Y-88906595D01*
X175626951Y-88933909D01*
X175656196Y-88942277D01*
X175670986Y-88947543D01*
X175678464Y-88950752D01*
X175698942Y-88959540D01*
X175756737Y-88971416D01*
X175765854Y-88973654D01*
X175822582Y-88989887D01*
X175852916Y-88992196D01*
X175868453Y-88994374D01*
X175898259Y-89000500D01*
X175957242Y-89000500D01*
X175966656Y-89000858D01*
X176025476Y-89005337D01*
X176055651Y-89001493D01*
X176071317Y-89000500D01*
X210679710Y-89000500D01*
X210746749Y-89020185D01*
X210792504Y-89072989D01*
X210795885Y-89081150D01*
X210818704Y-89142331D01*
X210904954Y-89257546D01*
X211020169Y-89343796D01*
X211155017Y-89394091D01*
X211214627Y-89400500D01*
X213110372Y-89400499D01*
X213169983Y-89394091D01*
X213304831Y-89343796D01*
X213420046Y-89257546D01*
X213506296Y-89142331D01*
X213534955Y-89065491D01*
X213576825Y-89009559D01*
X213642289Y-88985141D01*
X213710562Y-88999992D01*
X213742364Y-89024840D01*
X213750716Y-89033913D01*
X213933874Y-89176470D01*
X214137997Y-89286936D01*
X214247757Y-89324616D01*
X214357515Y-89362297D01*
X214357517Y-89362297D01*
X214357519Y-89362298D01*
X214586451Y-89400500D01*
X214586452Y-89400500D01*
X214818548Y-89400500D01*
X214818549Y-89400500D01*
X215047481Y-89362298D01*
X215267003Y-89286936D01*
X215471126Y-89176470D01*
X215654284Y-89033913D01*
X215811479Y-88863153D01*
X215938424Y-88668849D01*
X216031657Y-88456300D01*
X216088634Y-88231305D01*
X216107800Y-88000000D01*
X216101615Y-87925359D01*
X216111241Y-87866219D01*
X216122040Y-87841058D01*
X216133917Y-87783256D01*
X216136152Y-87774148D01*
X216152386Y-87717418D01*
X216154696Y-87687078D01*
X216156876Y-87671540D01*
X216163000Y-87641742D01*
X216163000Y-87582754D01*
X216163358Y-87573339D01*
X216167837Y-87514524D01*
X216163993Y-87484339D01*
X216163000Y-87468676D01*
X216163000Y-77424499D01*
X216182685Y-77357460D01*
X216235489Y-77311705D01*
X216287000Y-77300499D01*
X216507061Y-77300499D01*
X216510372Y-77300499D01*
X216569983Y-77294091D01*
X216704831Y-77243796D01*
X216820046Y-77157546D01*
X216906296Y-77042331D01*
X216956591Y-76907483D01*
X216963000Y-76847873D01*
X216962999Y-73152128D01*
X216956591Y-73092517D01*
X216906296Y-72957669D01*
X216820046Y-72842454D01*
X216704831Y-72756204D01*
X216569983Y-72705909D01*
X216518316Y-72700354D01*
X216513666Y-72699854D01*
X216513665Y-72699853D01*
X216510373Y-72699500D01*
X216507050Y-72699500D01*
X210627939Y-72699500D01*
X210627920Y-72699500D01*
X210624628Y-72699501D01*
X210621348Y-72699853D01*
X210621340Y-72699854D01*
X210565015Y-72705909D01*
X210430169Y-72756204D01*
X210314954Y-72842454D01*
X210228704Y-72957668D01*
X210178410Y-73092515D01*
X210178409Y-73092517D01*
X210172000Y-73152127D01*
X210172000Y-73155448D01*
X210172000Y-73155449D01*
X210172000Y-76844560D01*
X210172000Y-76844578D01*
X210172001Y-76847872D01*
X210178409Y-76907483D01*
X210228704Y-77042331D01*
X210314954Y-77157546D01*
X210430169Y-77243796D01*
X210565017Y-77294091D01*
X210624627Y-77300500D01*
X214038000Y-77300499D01*
X214105039Y-77320184D01*
X214150794Y-77372988D01*
X214162000Y-77424499D01*
X214162000Y-86626186D01*
X214142315Y-86693225D01*
X214097018Y-86735240D01*
X213975193Y-86801169D01*
X213933872Y-86823531D01*
X213750713Y-86966089D01*
X213742363Y-86975160D01*
X213682475Y-87011148D01*
X213612637Y-87009046D01*
X213555022Y-86969520D01*
X213534955Y-86934510D01*
X213506296Y-86857669D01*
X213420046Y-86742454D01*
X213304831Y-86656204D01*
X213169983Y-86605909D01*
X213110373Y-86599500D01*
X213107050Y-86599500D01*
X211217939Y-86599500D01*
X211217920Y-86599500D01*
X211214628Y-86599501D01*
X211211348Y-86599853D01*
X211211340Y-86599854D01*
X211155015Y-86605909D01*
X211059871Y-86641396D01*
X211020169Y-86656204D01*
X210904954Y-86742454D01*
X210818704Y-86857669D01*
X210795890Y-86918834D01*
X210754021Y-86974767D01*
X210688557Y-86999184D01*
X210679710Y-86999500D01*
X176465782Y-86999500D01*
X176398743Y-86979815D01*
X176378101Y-86963181D01*
X174949319Y-85534398D01*
X174915834Y-85473075D01*
X174913000Y-85446717D01*
X174913000Y-82262320D01*
X174932685Y-82195281D01*
X174962688Y-82163054D01*
X174970046Y-82157546D01*
X175056296Y-82042331D01*
X175106591Y-81907483D01*
X175113000Y-81847873D01*
X175112999Y-81250000D01*
X177212500Y-81250000D01*
X177212500Y-81844518D01*
X177212854Y-81851132D01*
X177218900Y-81907371D01*
X177269147Y-82042089D01*
X177355311Y-82157188D01*
X177470410Y-82243352D01*
X177605128Y-82293599D01*
X177661367Y-82299645D01*
X177667982Y-82300000D01*
X178162500Y-82300000D01*
X178162500Y-81250000D01*
X178662500Y-81250000D01*
X178662500Y-82300000D01*
X179157018Y-82300000D01*
X179163632Y-82299645D01*
X179219871Y-82293599D01*
X179354589Y-82243352D01*
X179469688Y-82157188D01*
X179555852Y-82042089D01*
X179606099Y-81907371D01*
X179612145Y-81851132D01*
X179612500Y-81844518D01*
X179612500Y-81250000D01*
X178662500Y-81250000D01*
X178162500Y-81250000D01*
X177212500Y-81250000D01*
X175112999Y-81250000D01*
X175112999Y-80750000D01*
X177212500Y-80750000D01*
X178162500Y-80750000D01*
X178162500Y-79700000D01*
X178662500Y-79700000D01*
X178662500Y-80750000D01*
X179612500Y-80750000D01*
X179612500Y-80155481D01*
X179612145Y-80148867D01*
X179606099Y-80092628D01*
X179555852Y-79957910D01*
X179469688Y-79842811D01*
X179354589Y-79756647D01*
X179219871Y-79706400D01*
X179163632Y-79700354D01*
X179157018Y-79700000D01*
X178662500Y-79700000D01*
X178162500Y-79700000D01*
X177667982Y-79700000D01*
X177661367Y-79700354D01*
X177605128Y-79706400D01*
X177470410Y-79756647D01*
X177355311Y-79842811D01*
X177269147Y-79957910D01*
X177218900Y-80092628D01*
X177212854Y-80148867D01*
X177212500Y-80155481D01*
X177212500Y-80750000D01*
X175112999Y-80750000D01*
X175112999Y-80152128D01*
X175106591Y-80092517D01*
X175056296Y-79957669D01*
X174970046Y-79842454D01*
X174970044Y-79842451D01*
X174962687Y-79836944D01*
X174920817Y-79781010D01*
X174913000Y-79737679D01*
X174913000Y-75250000D01*
X184062500Y-75250000D01*
X184062500Y-76844518D01*
X184062854Y-76851132D01*
X184068900Y-76907371D01*
X184119147Y-77042089D01*
X184205311Y-77157188D01*
X184320410Y-77243352D01*
X184455128Y-77293599D01*
X184511367Y-77299645D01*
X184517982Y-77300000D01*
X187207500Y-77300000D01*
X187207500Y-75250000D01*
X187707500Y-75250000D01*
X187707500Y-77300000D01*
X190397018Y-77300000D01*
X190403632Y-77299645D01*
X190459871Y-77293599D01*
X190594589Y-77243352D01*
X190709688Y-77157188D01*
X190795852Y-77042089D01*
X190846099Y-76907371D01*
X190852145Y-76851132D01*
X190852500Y-76844518D01*
X190852500Y-75250000D01*
X187707500Y-75250000D01*
X187207500Y-75250000D01*
X184062500Y-75250000D01*
X174913000Y-75250000D01*
X174913000Y-74749999D01*
X184062499Y-74749999D01*
X184062500Y-74750000D01*
X187207500Y-74750000D01*
X187207500Y-72700000D01*
X187707500Y-72700000D01*
X187707500Y-74750000D01*
X190852500Y-74750000D01*
X190852500Y-73155481D01*
X190852145Y-73148867D01*
X190846099Y-73092628D01*
X190795852Y-72957910D01*
X190709688Y-72842811D01*
X190594589Y-72756647D01*
X190459871Y-72706400D01*
X190403632Y-72700354D01*
X190397018Y-72700000D01*
X187707500Y-72700000D01*
X187207500Y-72700000D01*
X184517982Y-72700000D01*
X184511367Y-72700354D01*
X184455128Y-72706400D01*
X184320410Y-72756647D01*
X184205311Y-72842811D01*
X184119147Y-72957910D01*
X184068900Y-73092628D01*
X184062854Y-73148867D01*
X184062500Y-73155481D01*
X184062499Y-74749999D01*
X174913000Y-74749999D01*
X174913000Y-74262320D01*
X174932685Y-74195281D01*
X174962688Y-74163054D01*
X174970046Y-74157546D01*
X175056296Y-74042331D01*
X175106591Y-73907483D01*
X175113000Y-73847873D01*
X175113000Y-73250000D01*
X177212500Y-73250000D01*
X177212500Y-73844518D01*
X177212854Y-73851132D01*
X177218900Y-73907371D01*
X177269147Y-74042089D01*
X177355311Y-74157188D01*
X177470410Y-74243352D01*
X177605128Y-74293599D01*
X177661367Y-74299645D01*
X177667982Y-74300000D01*
X178162500Y-74300000D01*
X178162500Y-73250000D01*
X178662500Y-73250000D01*
X178662500Y-74300000D01*
X179157018Y-74300000D01*
X179163632Y-74299645D01*
X179219871Y-74293599D01*
X179354589Y-74243352D01*
X179469688Y-74157188D01*
X179555852Y-74042089D01*
X179606099Y-73907371D01*
X179612145Y-73851132D01*
X179612500Y-73844518D01*
X179612500Y-73250000D01*
X178662500Y-73250000D01*
X178162500Y-73250000D01*
X177212500Y-73250000D01*
X175113000Y-73250000D01*
X175113000Y-72750000D01*
X177212500Y-72750000D01*
X178162500Y-72750000D01*
X178162500Y-71700000D01*
X178662500Y-71700000D01*
X178662500Y-72750000D01*
X179612500Y-72750000D01*
X179612500Y-72155481D01*
X179612145Y-72148867D01*
X179606099Y-72092628D01*
X179555852Y-71957910D01*
X179469688Y-71842811D01*
X179354589Y-71756647D01*
X179219871Y-71706400D01*
X179163632Y-71700354D01*
X179157018Y-71700000D01*
X178662500Y-71700000D01*
X178162500Y-71700000D01*
X177667982Y-71700000D01*
X177661367Y-71700354D01*
X177605128Y-71706400D01*
X177470410Y-71756647D01*
X177355311Y-71842811D01*
X177269147Y-71957910D01*
X177218900Y-72092628D01*
X177212854Y-72148867D01*
X177212500Y-72155481D01*
X177212500Y-72750000D01*
X175113000Y-72750000D01*
X175112999Y-72152128D01*
X175106591Y-72092517D01*
X175056296Y-71957669D01*
X174970046Y-71842454D01*
X174854831Y-71756204D01*
X174719983Y-71705909D01*
X174668316Y-71700354D01*
X174663666Y-71699854D01*
X174663665Y-71699853D01*
X174660373Y-71699500D01*
X174657050Y-71699500D01*
X173167939Y-71699500D01*
X173167920Y-71699500D01*
X173164628Y-71699501D01*
X173161348Y-71699853D01*
X173161340Y-71699854D01*
X173105015Y-71705909D01*
X172970169Y-71756204D01*
X172854954Y-71842454D01*
X172768704Y-71957668D01*
X172718410Y-72092515D01*
X172718409Y-72092517D01*
X172712000Y-72152127D01*
X172712000Y-72155448D01*
X172712000Y-72155449D01*
X172712000Y-73844560D01*
X172712000Y-73844578D01*
X172712001Y-73847872D01*
X172718409Y-73907483D01*
X172768704Y-74042331D01*
X172854954Y-74157546D01*
X172862311Y-74163053D01*
X172904181Y-74218986D01*
X172912000Y-74262320D01*
X172912000Y-79737679D01*
X172892315Y-79804718D01*
X172862313Y-79836944D01*
X172854955Y-79842451D01*
X172768704Y-79957668D01*
X172718410Y-80092515D01*
X172718409Y-80092517D01*
X172712000Y-80152127D01*
X172712000Y-80155448D01*
X172712000Y-80155449D01*
X172712000Y-81844560D01*
X172712000Y-81844578D01*
X168997852Y-81844578D01*
X169003768Y-66460000D01*
X171904389Y-66460000D01*
X171924804Y-66745429D01*
X171985629Y-67025041D01*
X172085634Y-67293163D01*
X172222772Y-67544313D01*
X172308517Y-67658854D01*
X172394261Y-67773395D01*
X172596605Y-67975739D01*
X172768414Y-68104354D01*
X172825686Y-68147227D01*
X172965435Y-68223535D01*
X173076839Y-68284367D01*
X173344954Y-68384369D01*
X173344957Y-68384369D01*
X173344958Y-68384370D01*
X173397217Y-68395738D01*
X173624572Y-68445196D01*
X173838552Y-68460500D01*
X173840767Y-68460500D01*
X173979233Y-68460500D01*
X173981448Y-68460500D01*
X174195428Y-68445196D01*
X174475046Y-68384369D01*
X174743161Y-68284367D01*
X174994315Y-68147226D01*
X175223395Y-67975739D01*
X175425739Y-67773395D01*
X175597226Y-67544315D01*
X175734367Y-67293161D01*
X175834369Y-67025046D01*
X175895196Y-66745428D01*
X175915610Y-66460000D01*
X175895196Y-66174572D01*
X175834369Y-65894954D01*
X175734367Y-65626839D01*
X175597226Y-65375685D01*
X175425739Y-65146605D01*
X175223395Y-64944261D01*
X175108855Y-64858517D01*
X174994313Y-64772772D01*
X174743163Y-64635634D01*
X174743162Y-64635633D01*
X174743161Y-64635633D01*
X174475046Y-64535631D01*
X174475041Y-64535629D01*
X174195429Y-64474804D01*
X173983658Y-64459658D01*
X173983656Y-64459657D01*
X173981448Y-64459500D01*
X173838552Y-64459500D01*
X173836344Y-64459657D01*
X173836341Y-64459658D01*
X173624570Y-64474804D01*
X173344958Y-64535629D01*
X173076836Y-64635634D01*
X172825686Y-64772772D01*
X172596602Y-64944263D01*
X172394263Y-65146602D01*
X172222772Y-65375686D01*
X172085634Y-65626836D01*
X171985629Y-65894958D01*
X171924804Y-66174570D01*
X171904389Y-66460000D01*
X169003768Y-66460000D01*
X169004711Y-64008240D01*
X169004975Y-64000209D01*
X169010190Y-63920638D01*
X169022924Y-63742599D01*
X169024985Y-63727300D01*
X169047339Y-63614918D01*
X169078011Y-63473920D01*
X169081739Y-63460493D01*
X169120408Y-63346574D01*
X169121589Y-63343260D01*
X169169297Y-63215350D01*
X169174252Y-63203875D01*
X169228613Y-63093640D01*
X169230955Y-63089130D01*
X169295091Y-62971673D01*
X169300804Y-62962237D01*
X169369809Y-62858964D01*
X169373568Y-62853654D01*
X169453110Y-62747398D01*
X169459078Y-62740037D01*
X169541314Y-62646264D01*
X169546801Y-62640406D01*
X169640406Y-62546801D01*
X169646264Y-62541314D01*
X169740037Y-62459078D01*
X169747398Y-62453110D01*
X169853654Y-62373568D01*
X169858964Y-62369809D01*
X169962237Y-62300804D01*
X169971673Y-62295091D01*
X170089130Y-62230955D01*
X170093640Y-62228613D01*
X170203875Y-62174252D01*
X170215350Y-62169297D01*
X170343260Y-62121589D01*
X170346595Y-62120401D01*
X170460472Y-62081746D01*
X170473962Y-62078002D01*
X170614927Y-62047337D01*
X170727326Y-62024980D01*
X170742595Y-62022925D01*
X170920642Y-62010190D01*
X170991968Y-62005516D01*
X171000172Y-62004979D01*
X171008276Y-62004714D01*
X171055959Y-62004714D01*
X171056054Y-62004701D01*
X216991735Y-61994714D01*
X216999815Y-61994978D01*
G37*
%TD.AperFunction*%
%TD*%
M02*
